<?xml version="1.0" encoding="UTF-8"?>
<svg width="1131px" height="1468px" viewBox="0 0 1131 1468" version="1.1" xmlns="http://www.w3.org/2000/svg" xmlns:xlink="http://www.w3.org/1999/xlink">
    <!-- Generator: Sketch 43.2 (39069) - http://www.bohemiancoding.com/sketch -->
    <title>basement</title>
    <desc>Created with Sketch.</desc>
    <defs></defs>
    <g id="Page-1" stroke="none" stroke-width="1" fill="none" fill-rule="evenodd">
        <g id="Artboard" transform="translate(-93.000000, -167.000000)">
            <g id="basement" transform="translate(93.000000, 170.000000)">
                <path d="M0,1273.3 L548.23,1273.3" id="Shape" stroke="#FFFFFF" stroke-width="7"></path>
                <polyline id="Shape" stroke="#FFFFFF" stroke-width="7" points="624.7 1242.07 624.7 1273.3 582.13 1273.3 1130.65 1273.3"></polyline>
                <path d="M624.7,751.79 L624.7,1208.17" id="Shape" stroke="#FFFFFF" stroke-width="7"></path>
                <polyline id="Shape" stroke="#FFFFFF" stroke-width="7" points="998.22 1273.3 998.22 682.5 624.7 682.5 624.7 717.89"></polyline>
                <path d="M527.56,652.26 L527.56,682.5" id="Shape" stroke="#FFFFFF" stroke-width="7"></path>
                <path d="M886.8,588.13 L886.8,682.5" id="Shape" stroke="#FFFFFF" stroke-width="7"></path>
                <path d="M432.39,1304.52 L432.39,1273.3" id="Shape" stroke="#FFFFFF" stroke-width="7"></path>
                <path d="M448.33,1369.65 L0,1369.65" id="Shape" stroke="#FFFFFF" stroke-width="7"></path>
                <path d="M1130.65,1369.65 L517.5,1368.55" id="Shape" stroke="#FFFFFF" stroke-width="7"></path>
                <path d="M747.62,652.26 L747.62,682.5" id="Shape" stroke="#FFFFFF" stroke-width="7"></path>
                <path d="M428.83,682.5 L428.83,652.26" id="Shape" stroke="#FFFFFF" stroke-width="7"></path>
                <polyline id="Shape" stroke="#FFFFFF" stroke-width="7" points="527.56 880.75 371.73 880.75 371.73 1077.03 527.56 1077.03"></polyline>
                <path d="M527.56,1043.92 L527.56,1273.3" id="Shape" stroke="#FFFFFF" stroke-width="7"></path>
                <polyline id="Shape" stroke="#FFFFFF" stroke-width="7" points="38.66 1273.3 38.66 682.5 0 682.5 527.56 682.5 527.56 1010.02"></polyline>
                <polyline id="Shape" stroke="#FFFFFF" stroke-width="7" points="700.83 588.13 527.56 588.13 527.56 618.36 527.56 0.5 904.64 0.5 904.64 588.13 734.74 588.13 747.62 588.13 747.62 618.36"></polyline>
                <path d="M0,588.13 L453.63,588.13" id="Shape" stroke="#FFFFFF" stroke-width="7"></path>
                <path d="M657.22,1304.52 L657.22,1273.3" id="Shape" stroke="#FFFFFF" stroke-width="7"></path>
                <path d="M657.22,1369.65 L657.22,1338.43" id="Shape" stroke="#FFFFFF" stroke-width="7"></path>
                <path d="M886.8,1304.52 L886.8,1273.3" id="Shape" stroke="#FFFFFF" stroke-width="7"></path>
                <path d="M886.8,1369.65 L886.8,1338.43" id="Shape" stroke="#FFFFFF" stroke-width="7"></path>
                <path d="M548.23,1280.68 L548.23,1265.92" id="Shape" stroke="#FFFFFF" stroke-width="7"></path>
                <path d="M582.13,1280.68 L582.13,1265.92" id="Shape" stroke="#FFFFFF" stroke-width="7"></path>
                <path d="M425.01,1304.52 L439.78,1304.52" id="Shape" stroke="#FFFFFF" stroke-width="7"></path>
                <path d="M425.01,1338.43 L439.78,1338.43" id="Shape" stroke="#FFFFFF" stroke-width="7"></path>
                <path d="M649.83,1304.52 L664.6,1304.52" id="Shape" stroke="#FFFFFF" stroke-width="7"></path>
                <path d="M649.83,1338.43 L664.6,1338.43" id="Shape" stroke="#FFFFFF" stroke-width="7"></path>
                <path d="M879.41,1304.52 L894.18,1304.52" id="Shape" stroke="#FFFFFF" stroke-width="7"></path>
                <path d="M879.41,1338.43 L894.18,1338.43" id="Shape" stroke="#FFFFFF" stroke-width="7"></path>
                <path d="M617.32,1208.17 L632.09,1208.17" id="Shape" stroke="#FFFFFF" stroke-width="7"></path>
                <path d="M617.32,1242.07 L632.09,1242.07" id="Shape" stroke="#FFFFFF" stroke-width="7"></path>
                <path d="M617.32,717.89 L632.09,717.89" id="Shape" stroke="#FFFFFF" stroke-width="7"></path>
                <path d="M617.32,751.79 L632.09,751.79" id="Shape" stroke="#FFFFFF" stroke-width="7"></path>
                <path d="M520.17,1010.02 L534.94,1010.02" id="Shape" stroke="#FFFFFF" stroke-width="7"></path>
                <path d="M520.17,1043.92 L534.94,1043.92" id="Shape" stroke="#FFFFFF" stroke-width="7"></path>
                <path d="M38.66,619.35 L38.66,588.13" id="Shape" stroke="#FFFFFF" stroke-width="7"></path>
                <path d="M38.66,684.48 L38.66,653.26" id="Shape" stroke="#FFFFFF" stroke-width="7"></path>
                <path d="M31.28,619.35 L46.04,619.35" id="Shape" stroke="#FFFFFF" stroke-width="7"></path>
                <path d="M31.28,653.26 L46.04,653.26" id="Shape" stroke="#FFFFFF" stroke-width="7"></path>
                <path d="M421.44,618.36 L436.21,618.36" id="Shape" stroke="#FFFFFF" stroke-width="7"></path>
                <path d="M421.44,652.26 L436.21,652.26" id="Shape" stroke="#FFFFFF" stroke-width="7"></path>
                <path d="M520.17,618.36 L534.94,618.36" id="Shape" stroke="#FFFFFF" stroke-width="7"></path>
                <path d="M520.17,652.26 L534.94,652.26" id="Shape" stroke="#FFFFFF" stroke-width="7"></path>
                <path d="M740.24,618.36 L755,618.36" id="Shape" stroke="#FFFFFF" stroke-width="7"></path>
                <path d="M740.24,652.26 L755,652.26" id="Shape" stroke="#FFFFFF" stroke-width="7"></path>
                <path d="M700.83,595.51 L700.83,580.75" id="Shape" stroke="#FFFFFF" stroke-width="7"></path>
                <path d="M734.73,595.51 L734.73,580.75" id="Shape" stroke="#FFFFFF" stroke-width="7"></path>
                <path d="M485.61,1423.63 L445.85,1423.68" id="Shape" stroke="#FFFFFF" stroke-width="3"></path>
                <polyline id="Shape" stroke="#FFFFFF" stroke-width="7" points="521.08 1369.26 520.23 1460.85 444.2 1460.14 445.05 1368.55"></polyline>
                <path d="M485.97,1419.73 L521.26,1419.7" id="Shape" stroke="#FFFFFF" stroke-width="3"></path>
                <path d="M485.11,1385.14 L520.56,1385.07" id="Shape" stroke="#FFFFFF" stroke-width="3"></path>
                <path d="M520.73,1393.61 L485.32,1393.67" id="Shape" stroke="#FFFFFF" stroke-width="3"></path>
                <path d="M485.54,1402.35 L520.91,1402.43" id="Shape" stroke="#FFFFFF" stroke-width="3"></path>
                <path d="M485.75,1410.83 L521.08,1410.76" id="Shape" stroke="#FFFFFF" stroke-width="3"></path>
                <path d="M484.89,1376.17 L520.38,1376.34" id="Shape" stroke="#FFFFFF" stroke-width="3"></path>
                <path d="M485.52,1379.4 L445.97,1378.84" id="Shape" stroke="#FFFFFF" stroke-width="3"></path>
                <path d="M485.36,1414.04 L445.64,1413.47" id="Shape" stroke="#FFFFFF" stroke-width="3"></path>
                <path d="M485.4,1405.5 L445.72,1404.93" id="Shape" stroke="#FFFFFF" stroke-width="3"></path>
                <path d="M485.44,1396.82 L445.8,1396.26" id="Shape" stroke="#FFFFFF" stroke-width="3"></path>
                <path d="M485.48,1388.34 L445.88,1387.78" id="Shape" stroke="#FFFFFF" stroke-width="3"></path>
                <polyline id="Shape" stroke="#FFFFFF" stroke-width="3" points="520.53 1428.01 485.29 1427.93 485.57 1370.72 443.65 1370.03"></polyline>
                <path d="M485.6,534.53 L525.36,534.48" id="Shape" stroke="#FFFFFF" stroke-width="3"></path>
                <polyline id="Shape" stroke="#FFFFFF" stroke-width="7" points="450.13 588.9 450.98 497.31 527.01 498.02 526.16 589.61"></polyline>
                <path d="M485.24,538.43 L449.95,538.46" id="Shape" stroke="#FFFFFF" stroke-width="3"></path>
                <path d="M486.1,573.02 L450.65,573.09" id="Shape" stroke="#FFFFFF" stroke-width="3"></path>
                <path d="M450.48,564.55 L485.89,564.48" id="Shape" stroke="#FFFFFF" stroke-width="3"></path>
                <path d="M485.67,555.81 L450.3,555.73" id="Shape" stroke="#FFFFFF" stroke-width="3"></path>
                <path d="M485.46,547.33 L450.13,547.4" id="Shape" stroke="#FFFFFF" stroke-width="3"></path>
                <path d="M486.32,581.99 L450.83,581.81" id="Shape" stroke="#FFFFFF" stroke-width="3"></path>
                <path d="M485.69,578.75 L525.24,579.32" id="Shape" stroke="#FFFFFF" stroke-width="3"></path>
                <path d="M485.86,544.12 L525.57,544.69" id="Shape" stroke="#FFFFFF" stroke-width="3"></path>
                <path d="M485.81,552.66 L525.49,553.23" id="Shape" stroke="#FFFFFF" stroke-width="3"></path>
                <path d="M485.77,561.33 L525.41,561.9" id="Shape" stroke="#FFFFFF" stroke-width="3"></path>
                <path d="M485.73,569.81 L525.33,570.38" id="Shape" stroke="#FFFFFF" stroke-width="3"></path>
                <polyline id="Shape" stroke="#FFFFFF" stroke-width="3" points="450.68 530.15 485.92 530.22 485.64 587.43 527.56 588.13"></polyline>
                <path d="M428.83,618.36 L428.83,588.13" id="Shape" stroke="#FFFFFF" stroke-width="7"></path>
                <path d="M774.875,983.28125 L780.59375,982.78125 C780.864585,985.072928 781.494787,986.953118 782.484375,988.421875 C783.473963,989.890632 785.010406,991.07812 787.09375,991.984375 C789.177094,992.89063 791.52082,993.34375 794.125,993.34375 C796.437512,993.34375 798.479158,993.000003 800.25,992.3125 C802.020842,991.624997 803.338537,990.682298 804.203125,989.484375 C805.067713,988.286452 805.5,986.979174 805.5,985.5625 C805.5,984.124993 805.083337,982.869797 804.25,981.796875 C803.416663,980.723953 802.041676,979.82292 800.125,979.09375 C798.895827,978.614581 796.177104,977.869797 791.96875,976.859375 C787.760396,975.848953 784.812508,974.895838 783.125,974 C780.937489,972.854161 779.307297,971.4323 778.234375,969.734375 C777.161453,968.03645 776.625,966.135427 776.625,964.03125 C776.625,961.718738 777.281243,959.557302 778.59375,957.546875 C779.906257,955.536448 781.822904,954.010422 784.34375,952.96875 C786.864596,951.927078 789.666651,951.40625 792.75,951.40625 C796.14585,951.40625 799.140612,951.95312 801.734375,953.046875 C804.328138,954.14063 806.32291,955.749989 807.71875,957.875 C809.11459,960.000011 809.864583,962.406237 809.96875,965.09375 L804.15625,965.53125 C803.843748,962.635402 802.786467,960.447924 800.984375,958.96875 C799.182283,957.489576 796.520851,956.75 793,956.75 C789.333315,956.75 786.661467,957.421868 784.984375,958.765625 C783.307283,960.109382 782.46875,961.729157 782.46875,963.625 C782.46875,965.270842 783.062494,966.624995 784.25,967.6875 C785.416673,968.750005 788.463517,969.838536 793.390625,970.953125 C798.317733,972.067714 801.697908,973.041663 803.53125,973.875 C806.19793,975.104173 808.16666,976.661449 809.4375,978.546875 C810.70834,980.432301 811.34375,982.604154 811.34375,985.0625 C811.34375,987.500012 810.64584,989.796864 809.25,991.953125 C807.85416,994.109386 805.848971,995.786452 803.234375,996.984375 C800.619779,998.182298 797.6771,998.78125 794.40625,998.78125 C790.260396,998.78125 786.786472,998.177089 783.984375,996.96875 C781.182278,995.760411 778.984383,993.94272 777.390625,991.515625 C775.796867,989.08853 774.958334,986.343765 774.875,983.28125 Z M817.375,985.90625 L823,985.15625 C823.645837,988.343766 824.744784,990.640618 826.296875,992.046875 C827.848966,993.453132 829.739572,994.15625 831.96875,994.15625 C834.614597,994.15625 836.848949,993.239592 838.671875,991.40625 C840.494801,989.572908 841.40625,987.302097 841.40625,984.59375 C841.40625,982.010404 840.562508,979.880217 838.875,978.203125 C837.187492,976.526033 835.04168,975.6875 832.4375,975.6875 C831.374995,975.6875 830.052091,975.895831 828.46875,976.3125 L829.09375,971.375 C829.468752,971.416667 829.770832,971.4375 830,971.4375 C832.395845,971.4375 834.552074,970.812506 836.46875,969.5625 C838.385426,968.312494 839.34375,966.38543 839.34375,963.78125 C839.34375,961.71874 838.64584,960.010423 837.25,958.65625 C835.85416,957.302077 834.052094,956.625 831.84375,956.625 C829.656239,956.625 827.833341,957.312493 826.375,958.6875 C824.916659,960.062507 823.979169,962.124986 823.5625,964.875 L817.9375,963.875 C818.625003,960.104148 820.187488,957.182302 822.625,955.109375 C825.062512,953.036448 828.093732,952 831.71875,952 C834.218763,952 836.520823,952.536453 838.625,953.609375 C840.729177,954.682297 842.338536,956.145824 843.453125,958 C844.567714,959.854176 845.125,961.822906 845.125,963.90625 C845.125,965.885427 844.593755,967.687492 843.53125,969.3125 C842.468745,970.937508 840.895844,972.229162 838.8125,973.1875 C841.520847,973.812503 843.624992,975.109365 845.125,977.078125 C846.625008,979.046885 847.375,981.510402 847.375,984.46875 C847.375,988.46877 845.916681,991.859361 843,994.640625 C840.083319,997.421889 836.395856,998.8125 831.9375,998.8125 C827.916647,998.8125 824.578138,997.614595 821.921875,995.21875 C819.265612,992.822905 817.750002,989.718769 817.375,985.90625 Z" id="S3" fill="#FFFFFF"></path>
            </g>
        </g>
    </g>
</svg>