<?xml version="1.0" encoding="UTF-8"?>
<svg width="1131px" height="1468px" viewBox="0 0 1131 1468" version="1.1" xmlns="http://www.w3.org/2000/svg" xmlns:xlink="http://www.w3.org/1999/xlink">
    <!-- Generator: Sketch 43.2 (39069) - http://www.bohemiancoding.com/sketch -->
    <title>basement</title>
    <desc>Created with Sketch.</desc>
    <defs></defs>
    <g id="Page-1" stroke="none" stroke-width="1" fill="none" fill-rule="evenodd">
        <g id="Artboard" transform="translate(-93.000000, -167.000000)" stroke="#FFFFFF">
            <g id="basement" transform="translate(93.000000, 170.000000)">
                <path d="M0,1273.3 L548.23,1273.3" id="Shape" stroke-width="7"></path>
                <polyline id="Shape" stroke-width="7" points="624.7 1242.07 624.7 1273.3 582.13 1273.3 1130.65 1273.3"></polyline>
                <path d="M624.7,751.79 L624.7,1208.17" id="Shape" stroke-width="7"></path>
                <polyline id="Shape" stroke-width="7" points="998.22 1273.3 998.22 682.5 624.7 682.5 624.7 717.89"></polyline>
                <path d="M527.56,652.26 L527.56,682.5" id="Shape" stroke-width="7"></path>
                <path d="M886.8,588.13 L886.8,682.5" id="Shape" stroke-width="7"></path>
                <path d="M432.39,1304.52 L432.39,1273.3" id="Shape" stroke-width="7"></path>
                <path d="M448.33,1369.65 L0,1369.65" id="Shape" stroke-width="7"></path>
                <path d="M1130.65,1369.65 L517.5,1368.55" id="Shape" stroke-width="7"></path>
                <path d="M747.62,652.26 L747.62,682.5" id="Shape" stroke-width="7"></path>
                <path d="M428.83,682.5 L428.83,652.26" id="Shape" stroke-width="7"></path>
                <polyline id="Shape" stroke-width="7" points="527.56 880.75 371.73 880.75 371.73 1077.03 527.56 1077.03"></polyline>
                <path d="M527.56,1043.92 L527.56,1273.3" id="Shape" stroke-width="7"></path>
                <polyline id="Shape" stroke-width="7" points="38.66 1273.3 38.66 682.5 0 682.5 527.56 682.5 527.56 1010.02"></polyline>
                <polyline id="Shape" stroke-width="7" points="700.83 588.13 527.56 588.13 527.56 618.36 527.56 0.5 904.64 0.5 904.64 588.13 734.74 588.13 747.62 588.13 747.62 618.36"></polyline>
                <path d="M0,588.13 L453.63,588.13" id="Shape" stroke-width="7"></path>
                <path d="M657.22,1304.52 L657.22,1273.3" id="Shape" stroke-width="7"></path>
                <path d="M657.22,1369.65 L657.22,1338.43" id="Shape" stroke-width="7"></path>
                <path d="M886.8,1304.52 L886.8,1273.3" id="Shape" stroke-width="7"></path>
                <path d="M886.8,1369.65 L886.8,1338.43" id="Shape" stroke-width="7"></path>
                <path d="M548.23,1280.68 L548.23,1265.92" id="Shape" stroke-width="7"></path>
                <path d="M582.13,1280.68 L582.13,1265.92" id="Shape" stroke-width="7"></path>
                <path d="M425.01,1304.52 L439.78,1304.52" id="Shape" stroke-width="7"></path>
                <path d="M425.01,1338.43 L439.78,1338.43" id="Shape" stroke-width="7"></path>
                <path d="M649.83,1304.52 L664.6,1304.52" id="Shape" stroke-width="7"></path>
                <path d="M649.83,1338.43 L664.6,1338.43" id="Shape" stroke-width="7"></path>
                <path d="M879.41,1304.52 L894.18,1304.52" id="Shape" stroke-width="7"></path>
                <path d="M879.41,1338.43 L894.18,1338.43" id="Shape" stroke-width="7"></path>
                <path d="M617.32,1208.17 L632.09,1208.17" id="Shape" stroke-width="7"></path>
                <path d="M617.32,1242.07 L632.09,1242.07" id="Shape" stroke-width="7"></path>
                <path d="M617.32,717.89 L632.09,717.89" id="Shape" stroke-width="7"></path>
                <path d="M617.32,751.79 L632.09,751.79" id="Shape" stroke-width="7"></path>
                <path d="M520.17,1010.02 L534.94,1010.02" id="Shape" stroke-width="7"></path>
                <path d="M520.17,1043.92 L534.94,1043.92" id="Shape" stroke-width="7"></path>
                <path d="M38.66,619.35 L38.66,588.13" id="Shape" stroke-width="7"></path>
                <path d="M38.66,684.48 L38.66,653.26" id="Shape" stroke-width="7"></path>
                <path d="M31.28,619.35 L46.04,619.35" id="Shape" stroke-width="7"></path>
                <path d="M31.28,653.26 L46.04,653.26" id="Shape" stroke-width="7"></path>
                <path d="M421.44,618.36 L436.21,618.36" id="Shape" stroke-width="7"></path>
                <path d="M421.44,652.26 L436.21,652.26" id="Shape" stroke-width="7"></path>
                <path d="M520.17,618.36 L534.94,618.36" id="Shape" stroke-width="7"></path>
                <path d="M520.17,652.26 L534.94,652.26" id="Shape" stroke-width="7"></path>
                <path d="M740.24,618.36 L755,618.36" id="Shape" stroke-width="7"></path>
                <path d="M740.24,652.26 L755,652.26" id="Shape" stroke-width="7"></path>
                <path d="M700.83,595.51 L700.83,580.75" id="Shape" stroke-width="7"></path>
                <path d="M734.73,595.51 L734.73,580.75" id="Shape" stroke-width="7"></path>
                <path d="M485.61,1423.63 L445.85,1423.68" id="Shape" stroke-width="3"></path>
                <polyline id="Shape" stroke-width="7" points="521.08 1369.26 520.23 1460.85 444.2 1460.14 445.05 1368.55"></polyline>
                <path d="M485.97,1419.73 L521.26,1419.7" id="Shape" stroke-width="3"></path>
                <path d="M485.11,1385.14 L520.56,1385.07" id="Shape" stroke-width="3"></path>
                <path d="M520.73,1393.61 L485.32,1393.67" id="Shape" stroke-width="3"></path>
                <path d="M485.54,1402.35 L520.91,1402.43" id="Shape" stroke-width="3"></path>
                <path d="M485.75,1410.83 L521.08,1410.76" id="Shape" stroke-width="3"></path>
                <path d="M484.89,1376.17 L520.38,1376.34" id="Shape" stroke-width="3"></path>
                <path d="M485.52,1379.4 L445.97,1378.84" id="Shape" stroke-width="3"></path>
                <path d="M485.36,1414.04 L445.64,1413.47" id="Shape" stroke-width="3"></path>
                <path d="M485.4,1405.5 L445.72,1404.93" id="Shape" stroke-width="3"></path>
                <path d="M485.44,1396.82 L445.8,1396.26" id="Shape" stroke-width="3"></path>
                <path d="M485.48,1388.34 L445.88,1387.78" id="Shape" stroke-width="3"></path>
                <polyline id="Shape" stroke-width="3" points="520.53 1428.01 485.29 1427.93 485.57 1370.72 443.65 1370.03"></polyline>
                <path d="M485.6,534.53 L525.36,534.48" id="Shape" stroke-width="3"></path>
                <polyline id="Shape" stroke-width="7" points="450.13 588.9 450.98 497.31 527.01 498.02 526.16 589.61"></polyline>
                <path d="M485.24,538.43 L449.95,538.46" id="Shape" stroke-width="3"></path>
                <path d="M486.1,573.02 L450.65,573.09" id="Shape" stroke-width="3"></path>
                <path d="M450.48,564.55 L485.89,564.48" id="Shape" stroke-width="3"></path>
                <path d="M485.67,555.81 L450.3,555.73" id="Shape" stroke-width="3"></path>
                <path d="M485.46,547.33 L450.13,547.4" id="Shape" stroke-width="3"></path>
                <path d="M486.32,581.99 L450.83,581.81" id="Shape" stroke-width="3"></path>
                <path d="M485.69,578.75 L525.24,579.32" id="Shape" stroke-width="3"></path>
                <path d="M485.86,544.12 L525.57,544.69" id="Shape" stroke-width="3"></path>
                <path d="M485.81,552.66 L525.49,553.23" id="Shape" stroke-width="3"></path>
                <path d="M485.77,561.33 L525.41,561.9" id="Shape" stroke-width="3"></path>
                <path d="M485.73,569.81 L525.33,570.38" id="Shape" stroke-width="3"></path>
                <polyline id="Shape" stroke-width="3" points="450.68 530.15 485.92 530.22 485.64 587.43 527.56 588.13"></polyline>
                <path d="M428.83,618.36 L428.83,588.13" id="Shape" stroke-width="7"></path>
            </g>
        </g>
    </g>
</svg>