<?xml version="1.0" encoding="UTF-8"?>
<svg width="594px" height="1508px" viewBox="0 0 594 1508" version="1.1" xmlns="http://www.w3.org/2000/svg" xmlns:xlink="http://www.w3.org/1999/xlink">
    <!-- Generator: Sketch 43.2 (39069) - http://www.bohemiancoding.com/sketch -->
    <title>firstfloor</title>
    <desc>Created with Sketch.</desc>
    <defs></defs>
    <g id="Page-1" stroke="none" stroke-width="1" fill="none" fill-rule="evenodd">
        <g id="Artboard" transform="translate(-313.000000, -122.000000)">
            <g id="firstfloor" transform="translate(318.000000, 125.000000)">
                <path d="M335.7,705.67 L350.03,705.67" id="Shape" stroke="#FFFFFF" stroke-width="7"></path>
                <path d="M192.97,480.12 L205.53,487.02" id="Shape" stroke="#FFFFFF" stroke-width="7"></path>
                <path d="M180.7,500.39 L193.26,507.29" id="Shape" stroke="#FFFFFF" stroke-width="7"></path>
                <path d="M335.68,177.07 L350.01,177.07" id="Shape" stroke="#FFFFFF" stroke-width="7"></path>
                <path d="M335.8,205.88 L350.14,205.88" id="Shape" stroke="#FFFFFF" stroke-width="7"></path>
                <path d="M341.95,1440.01 L341.95,1253.51" id="Shape" stroke="#FFFFFF" stroke-width="7"></path>
                <path d="M342.9,922.5 L342.9,734.59" id="Shape" stroke="#FFFFFF" stroke-width="7"></path>
                <path d="M342.9,401.32 L342.9,205.88" id="Shape" stroke="#FFFFFF" stroke-width="7"></path>
                <path d="M342.9,1.03 L342.9,177.08" id="Shape" stroke="#FFFFFF" stroke-width="7"></path>
                <polyline id="Shape" stroke="#FFFFFF" stroke-width="7" points="341.95 1488.15 280.88 1488.15 280.88 1227.67 78.3 1118.11 0.34 1073.1 38.64 1006.76 116.6 1051.77 117.7 1052.56 263.71 799.22 281.84 651.32 222.68 616.97 156.84 636.05 121.53 616.01 145.6 574.67 66.42 528.95 103.37 464.95"></polyline>
                <polyline id="Shape" stroke="#FFFFFF" stroke-width="7" points="585.27 977.66 342.9 977.66 342.9 950.94"></polyline>
                <polyline id="Shape" stroke="#FFFFFF" stroke-width="7" points="585.27 1052.26 341.95 1052.26 341.95 1224.71"></polyline>
                <polyline id="Shape" stroke="#FFFFFF" stroke-width="7" points="585.27 529.28 342.9 529.28 342.9 705.71"></polyline>
                <polyline id="Shape" stroke="#FFFFFF" stroke-width="7" points="585.27 454.75 342.9 454.75 342.9 430.26"></polyline>
                <path d="M342.9,753.2 L585.27,753.2" id="Shape" stroke="#FFFFFF" stroke-width="7"></path>
                <path d="M342.9,230.22 L585.27,230.22" id="Shape" stroke="#FFFFFF" stroke-width="7"></path>
                <path d="M341.95,1274.41 L585.27,1274.41" id="Shape" stroke="#FFFFFF" stroke-width="7"></path>
                <polyline id="Shape" stroke="#FFFFFF" stroke-width="7" points="186.56 505.06 183.15 511.13 70.4 446.03 146.45 314.33 259.19 379.42"></polyline>
                <path d="M187.18,503.95 L186.56,505.06" id="Shape" stroke="#FFFFFF" stroke-width="3"></path>
                <polyline id="Shape" stroke="#FFFFFF" stroke-width="7" points="198.71 483.57 276.11 350.74 280.88 341.68 280.88 148.69 280.88 1.51 585.27 0.55 585.27 442.46 585.27 522.61 585.27 965.1 585.27 1052.26 585.27 1499.71 585.27 1500.55 341.95 1500.55 341.95 1469.07"></polyline>
                <path d="M335.61,401.26 L349.95,401.26" id="Shape" stroke="#FFFFFF" stroke-width="7"></path>
                <path d="M335.8,430.26 L350.14,430.26" id="Shape" stroke="#FFFFFF" stroke-width="7"></path>
                <path d="M335.74,921.92 L350.07,921.92" id="Shape" stroke="#FFFFFF" stroke-width="7"></path>
                <path d="M335.66,950.92 L349.99,950.92" id="Shape" stroke="#FFFFFF" stroke-width="7"></path>
                <path d="M334.66,1224.76 L348.99,1224.76" id="Shape" stroke="#FFFFFF" stroke-width="7"></path>
                <path d="M334.74,1253.51 L349.07,1253.51" id="Shape" stroke="#FFFFFF" stroke-width="7"></path>
                <path d="M334.86,1440.01 L349.2,1440.01" id="Shape" stroke="#FFFFFF" stroke-width="7"></path>
                <path d="M334.68,1469.01 L349.01,1469.01" id="Shape" stroke="#FFFFFF" stroke-width="7"></path>
                <path d="M335.74,734.59 L350.07,734.59" id="Shape" stroke="#FFFFFF" stroke-width="7"></path>
                <path d="M49.27,1056.16 L29.61,1088.44" id="Shape" stroke="#FFFFFF" stroke-width="3"></path>
                <path d="M56.06,1061.78 L37.37,1092.74" id="Shape" stroke="#FFFFFF" stroke-width="3"></path>
                <path d="M86.1,1078.95 L67.25,1110.25" id="Shape" stroke="#FFFFFF" stroke-width="3"></path>
                <path d="M59.86,1105.98 L79.42,1073.5" id="Shape" stroke="#FFFFFF" stroke-width="3"></path>
                <path d="M71.15,1070.41 L52.34,1101.65" id="Shape" stroke="#FFFFFF" stroke-width="3"></path>
                <path d="M63.79,1066.2 L45,1097.4" id="Shape" stroke="#FFFFFF" stroke-width="3"></path>
                <path d="M93.82,1083.5 L74.13,1115.7" id="Shape" stroke="#FFFFFF" stroke-width="3"></path>
                <path d="M97.48,1087 L121.51,1046.06" id="Shape" stroke="#FFFFFF" stroke-width="3"></path>
                <path d="M91.1,1080.71 L110.17,1048.06" id="Shape" stroke="#FFFFFF" stroke-width="3"></path>
                <path d="M60.55,1064.35 L80.18,1030.74" id="Shape" stroke="#FFFFFF" stroke-width="3"></path>
                <path d="M67.96,1068.58 L87.57,1035.01" id="Shape" stroke="#FFFFFF" stroke-width="3"></path>
                <path d="M75.49,1072.89 L95.25,1039.07" id="Shape" stroke="#FFFFFF" stroke-width="3"></path>
                <path d="M83.59,1075.85 L102.43,1043.59" id="Shape" stroke="#FFFFFF" stroke-width="3"></path>
                <path d="M52.83,1059.94 L72.48,1026.29" id="Shape" stroke="#FFFFFF" stroke-width="3"></path>
                <path d="M48.49,1057.46 L99.44,1086.57" id="Shape" stroke="#FFFFFF" stroke-width="3" fill="#FFFFFF" fill-rule="nonzero"></path>
                <path d="M115.44,513.54 L95.78,545.83" id="Shape" stroke="#FFFFFF" stroke-width="3"></path>
                <path d="M122.22,519.16 L103.54,550.12" id="Shape" stroke="#FFFFFF" stroke-width="3"></path>
                <path d="M152.27,536.33 L133.42,567.64" id="Shape" stroke="#FFFFFF" stroke-width="3"></path>
                <path d="M126.02,563.37 L145.58,530.88" id="Shape" stroke="#FFFFFF" stroke-width="3"></path>
                <path d="M137.32,527.79 L118.51,559.03" id="Shape" stroke="#FFFFFF" stroke-width="3"></path>
                <path d="M129.95,523.58 L111.16,554.79" id="Shape" stroke="#FFFFFF" stroke-width="3"></path>
                <path d="M159.99,540.88 L141.24,571.55" id="Shape" stroke="#FFFFFF" stroke-width="3"></path>
                <path d="M163.64,544.38 L187.68,503.45" id="Shape" stroke="#FFFFFF" stroke-width="3"></path>
                <path d="M157.26,538.1 L175.66,506.6" id="Shape" stroke="#FFFFFF" stroke-width="3"></path>
                <path d="M126.72,521.73 L145.58,489.44" id="Shape" stroke="#FFFFFF" stroke-width="3"></path>
                <path d="M134.13,525.97 L152.97,493.7" id="Shape" stroke="#FFFFFF" stroke-width="3"></path>
                <path d="M141.66,530.27 L160.48,498.04" id="Shape" stroke="#FFFFFF" stroke-width="3"></path>
                <path d="M149.75,533.23 L167.83,502.28" id="Shape" stroke="#FFFFFF" stroke-width="3"></path>
                <path d="M118.99,517.32 L137.87,484.99" id="Shape" stroke="#FFFFFF" stroke-width="3"></path>
                <path d="M114.66,514.84 L165.6,543.95" id="Shape" stroke="#FFFFFF" stroke-width="3" fill="#FFFFFF" fill-rule="nonzero"></path>
                <path d="M380.90625,1180 L398.5,1134.1875 L405.03125,1134.1875 L423.78125,1180 L416.875,1180 L411.53125,1166.125 L392.375,1166.125 L387.34375,1180 L380.90625,1180 Z M394.125,1161.1875 L409.65625,1161.1875 L404.875,1148.5 C403.416659,1144.64581 402.333337,1141.47918 401.625,1139 C401.041664,1141.93751 400.218755,1144.85415 399.15625,1147.75 L394.125,1161.1875 Z M447.53125,1180 L441.90625,1180 L441.90625,1144.15625 C440.552077,1145.44792 438.776053,1146.73958 436.578125,1148.03125 C434.380197,1149.32292 432.406259,1150.29166 430.65625,1150.9375 L430.65625,1145.5 C433.802099,1144.02083 436.552072,1142.22918 438.90625,1140.125 C441.260428,1138.02082 442.927078,1135.97918 443.90625,1134 L447.53125,1134 L447.53125,1180 Z M465.09375,1180 L465.09375,1173.59375 L471.5,1173.59375 L471.5,1180 L465.09375,1180 Z M479.71875,1157.40625 C479.71875,1151.98956 480.276036,1147.63022 481.390625,1144.32812 C482.505214,1141.02603 484.161447,1138.47918 486.359375,1136.6875 C488.557303,1134.89582 491.3229,1134 494.65625,1134 C497.114596,1134 499.270824,1134.49479 501.125,1135.48438 C502.979176,1136.47396 504.510411,1137.90103 505.71875,1139.76562 C506.927089,1141.63022 507.874997,1143.90103 508.5625,1146.57812 C509.250003,1149.25522 509.59375,1152.86456 509.59375,1157.40625 C509.59375,1162.78128 509.041672,1167.11978 507.9375,1170.42188 C506.833328,1173.72397 505.182303,1176.27603 502.984375,1178.07812 C500.786447,1179.88022 498.010433,1180.78125 494.65625,1180.78125 C490.239561,1180.78125 486.770846,1179.19793 484.25,1176.03125 C481.229152,1172.21873 479.71875,1166.01046 479.71875,1157.40625 Z M485.5,1157.40625 C485.5,1164.92712 486.3802,1169.93228 488.140625,1172.42188 C489.90105,1174.91147 492.072904,1176.15625 494.65625,1176.15625 C497.239596,1176.15625 499.41145,1174.90626 501.171875,1172.40625 C502.9323,1169.90624 503.8125,1164.90629 503.8125,1157.40625 C503.8125,1149.86455 502.9323,1144.85418 501.171875,1142.375 C499.41145,1139.89582 497.218763,1138.65625 494.59375,1138.65625 C492.010404,1138.65625 489.947924,1139.74999 488.40625,1141.9375 C486.46874,1144.72918 485.5,1149.88538 485.5,1157.40625 Z M544.5,1145.40625 L538.90625,1145.84375 C538.406248,1143.63541 537.697921,1142.03126 536.78125,1141.03125 C535.260409,1139.42708 533.385428,1138.625 531.15625,1138.625 C529.364574,1138.625 527.791673,1139.12499 526.4375,1140.125 C524.666658,1141.41667 523.270838,1143.30207 522.25,1145.78125 C521.229162,1148.26043 520.697917,1151.79164 520.65625,1156.375 C522.010423,1154.31249 523.666657,1152.78126 525.625,1151.78125 C527.583343,1150.78124 529.635406,1150.28125 531.78125,1150.28125 C535.531269,1150.28125 538.723945,1151.66144 541.359375,1154.42188 C543.994805,1157.18231 545.3125,1160.74998 545.3125,1165.125 C545.3125,1168.00001 544.692715,1170.67186 543.453125,1173.14062 C542.213535,1175.60939 540.510427,1177.49999 538.34375,1178.8125 C536.177073,1180.12501 533.718764,1180.78125 530.96875,1180.78125 C526.281227,1180.78125 522.458348,1179.05731 519.5,1175.60938 C516.541652,1172.16144 515.0625,1166.47921 515.0625,1158.5625 C515.0625,1149.70829 516.6979,1143.27085 519.96875,1139.25 C522.822931,1135.74998 526.666642,1134 531.5,1134 C535.104185,1134 538.05728,1135.01041 540.359375,1137.03125 C542.66147,1139.05209 544.041664,1141.84373 544.5,1145.40625 Z M521.53125,1165.15625 C521.53125,1167.09376 521.942704,1168.94791 522.765625,1170.71875 C523.588546,1172.48959 524.739576,1173.83854 526.21875,1174.76562 C527.697924,1175.69271 529.249992,1176.15625 530.875,1176.15625 C533.250012,1176.15625 535.291658,1175.19793 537,1173.28125 C538.708342,1171.36457 539.5625,1168.76043 539.5625,1165.46875 C539.5625,1162.30207 538.718758,1159.8073 537.03125,1157.98438 C535.343742,1156.16145 533.218763,1155.25 530.65625,1155.25 C528.114571,1155.25 525.958342,1156.16145 524.1875,1157.98438 C522.416658,1159.8073 521.53125,1162.1979 521.53125,1165.15625 Z" id="A1.06" fill="#FFFFFF" fill-rule="nonzero"></path>
            </g>
        </g>
    </g>
</svg>