<?xml version="1.0" encoding="UTF-8"?>
<svg width="594px" height="1508px" viewBox="0 0 594 1508" version="1.1" xmlns="http://www.w3.org/2000/svg" xmlns:xlink="http://www.w3.org/1999/xlink">
    <!-- Generator: Sketch 43.2 (39069) - http://www.bohemiancoding.com/sketch -->
    <title>floor</title>
    <desc>Created with Sketch.</desc>
    <defs></defs>
    <g id="Page-1" stroke="none" stroke-width="1" fill="none" fill-rule="evenodd">
        <g id="Artboard" transform="translate(-151.000000, -76.000000)">
            <g id="floor" transform="translate(156.000000, 79.000000)">
                <path d="M335.7,705.67 L350.03,705.67" id="Shape" stroke="#FFFFFF" stroke-width="7"></path>
                <path d="M192.97,480.12 L205.53,487.02" id="Shape" stroke="#FFFFFF" stroke-width="7"></path>
                <path d="M180.7,500.39 L193.26,507.29" id="Shape" stroke="#FFFFFF" stroke-width="7"></path>
                <path d="M335.68,177.07 L350.01,177.07" id="Shape" stroke="#FFFFFF" stroke-width="7"></path>
                <path d="M335.8,205.88 L350.14,205.88" id="Shape" stroke="#FFFFFF" stroke-width="7"></path>
                <path d="M341.95,1440.01 L341.95,1253.51" id="Shape" stroke="#FFFFFF" stroke-width="7"></path>
                <path d="M342.9,922.5 L342.9,734.59" id="Shape" stroke="#FFFFFF" stroke-width="7"></path>
                <path d="M342.9,401.32 L342.9,205.88" id="Shape" stroke="#FFFFFF" stroke-width="7"></path>
                <path d="M342.9,1.03 L342.9,177.08" id="Shape" stroke="#FFFFFF" stroke-width="7"></path>
                <polyline id="Shape" stroke="#FFFFFF" stroke-width="7" points="341.95 1488.15 280.88 1488.15 280.88 1227.67 78.3 1118.11 0.34 1073.1 38.64 1006.76 116.6 1051.77 117.7 1052.56 263.71 799.22 281.84 651.32 222.68 616.97 156.84 636.05 121.53 616.01 145.6 574.67 66.42 528.95 103.37 464.95"></polyline>
                <polyline id="Shape" stroke="#FFFFFF" stroke-width="7" points="585.27 977.66 342.9 977.66 342.9 950.94"></polyline>
                <polyline id="Shape" stroke="#FFFFFF" stroke-width="7" points="585.27 1052.26 341.95 1052.26 341.95 1224.71"></polyline>
                <polyline id="Shape" stroke="#FFFFFF" stroke-width="7" points="585.27 529.28 342.9 529.28 342.9 705.71"></polyline>
                <polyline id="Shape" stroke="#FFFFFF" stroke-width="7" points="585.27 454.75 342.9 454.75 342.9 430.26"></polyline>
                <path d="M342.9,753.2 L585.27,753.2" id="Shape" stroke="#FFFFFF" stroke-width="7"></path>
                <path d="M342.9,230.22 L585.27,230.22" id="Shape" stroke="#FFFFFF" stroke-width="7"></path>
                <path d="M341.95,1274.41 L585.27,1274.41" id="Shape" stroke="#FFFFFF" stroke-width="7"></path>
                <polyline id="Shape" stroke="#FFFFFF" stroke-width="7" points="186.56 505.06 183.15 511.13 70.4 446.03 146.45 314.33 259.19 379.42"></polyline>
                <path d="M187.18,503.95 L186.56,505.06" id="Shape" stroke="#FFFFFF" stroke-width="3"></path>
                <polyline id="Shape" stroke="#FFFFFF" stroke-width="7" points="198.71 483.57 276.11 350.74 280.88 341.68 280.88 148.69 280.88 1.51 585.27 0.55 585.27 442.46 585.27 522.61 585.27 965.1 585.27 1052.26 585.27 1499.71 585.27 1500.55 341.95 1500.55 341.95 1469.07"></polyline>
                <path d="M335.61,401.26 L349.95,401.26" id="Shape" stroke="#FFFFFF" stroke-width="7"></path>
                <path d="M335.8,430.26 L350.14,430.26" id="Shape" stroke="#FFFFFF" stroke-width="7"></path>
                <path d="M335.74,921.92 L350.07,921.92" id="Shape" stroke="#FFFFFF" stroke-width="7"></path>
                <path d="M335.66,950.92 L349.99,950.92" id="Shape" stroke="#FFFFFF" stroke-width="7"></path>
                <path d="M334.66,1224.76 L348.99,1224.76" id="Shape" stroke="#FFFFFF" stroke-width="7"></path>
                <path d="M334.74,1253.51 L349.07,1253.51" id="Shape" stroke="#FFFFFF" stroke-width="7"></path>
                <path d="M334.86,1440.01 L349.2,1440.01" id="Shape" stroke="#FFFFFF" stroke-width="7"></path>
                <path d="M334.68,1469.01 L349.01,1469.01" id="Shape" stroke="#FFFFFF" stroke-width="7"></path>
                <path d="M335.74,734.59 L350.07,734.59" id="Shape" stroke="#FFFFFF" stroke-width="7"></path>
                <path d="M49.27,1056.16 L29.61,1088.44" id="Shape" stroke="#FFFFFF" stroke-width="3"></path>
                <path d="M56.06,1061.78 L37.37,1092.74" id="Shape" stroke="#FFFFFF" stroke-width="3"></path>
                <path d="M86.1,1078.95 L67.25,1110.25" id="Shape" stroke="#FFFFFF" stroke-width="3"></path>
                <path d="M59.86,1105.98 L79.42,1073.5" id="Shape" stroke="#FFFFFF" stroke-width="3"></path>
                <path d="M71.15,1070.41 L52.34,1101.65" id="Shape" stroke="#FFFFFF" stroke-width="3"></path>
                <path d="M63.79,1066.2 L45,1097.4" id="Shape" stroke="#FFFFFF" stroke-width="3"></path>
                <path d="M93.82,1083.5 L74.13,1115.7" id="Shape" stroke="#FFFFFF" stroke-width="3"></path>
                <path d="M97.48,1087 L121.51,1046.06" id="Shape" stroke="#FFFFFF" stroke-width="3"></path>
                <path d="M91.1,1080.71 L110.17,1048.06" id="Shape" stroke="#FFFFFF" stroke-width="3"></path>
                <path d="M60.55,1064.35 L80.18,1030.74" id="Shape" stroke="#FFFFFF" stroke-width="3"></path>
                <path d="M67.96,1068.58 L87.57,1035.01" id="Shape" stroke="#FFFFFF" stroke-width="3"></path>
                <path d="M75.49,1072.89 L95.25,1039.07" id="Shape" stroke="#FFFFFF" stroke-width="3"></path>
                <path d="M83.59,1075.85 L102.43,1043.59" id="Shape" stroke="#FFFFFF" stroke-width="3"></path>
                <path d="M52.83,1059.94 L72.48,1026.29" id="Shape" stroke="#FFFFFF" stroke-width="3"></path>
                <path d="M48.49,1057.46 L99.44,1086.57" id="Shape" stroke="#FFFFFF" stroke-width="3" fill="#FFFFFF" fill-rule="nonzero"></path>
                <path d="M115.44,513.54 L95.78,545.83" id="Shape" stroke="#FFFFFF" stroke-width="3"></path>
                <path d="M122.22,519.16 L103.54,550.12" id="Shape" stroke="#FFFFFF" stroke-width="3"></path>
                <path d="M152.27,536.33 L133.42,567.64" id="Shape" stroke="#FFFFFF" stroke-width="3"></path>
                <path d="M126.02,563.37 L145.58,530.88" id="Shape" stroke="#FFFFFF" stroke-width="3"></path>
                <path d="M137.32,527.79 L118.51,559.03" id="Shape" stroke="#FFFFFF" stroke-width="3"></path>
                <path d="M129.95,523.58 L111.16,554.79" id="Shape" stroke="#FFFFFF" stroke-width="3"></path>
                <path d="M159.99,540.88 L141.24,571.55" id="Shape" stroke="#FFFFFF" stroke-width="3"></path>
                <path d="M163.64,544.38 L187.68,503.45" id="Shape" stroke="#FFFFFF" stroke-width="3"></path>
                <path d="M157.26,538.1 L175.66,506.6" id="Shape" stroke="#FFFFFF" stroke-width="3"></path>
                <path d="M126.72,521.73 L145.58,489.44" id="Shape" stroke="#FFFFFF" stroke-width="3"></path>
                <path d="M134.13,525.97 L152.97,493.7" id="Shape" stroke="#FFFFFF" stroke-width="3"></path>
                <path d="M141.66,530.27 L160.48,498.04" id="Shape" stroke="#FFFFFF" stroke-width="3"></path>
                <path d="M149.75,533.23 L167.83,502.28" id="Shape" stroke="#FFFFFF" stroke-width="3"></path>
                <path d="M118.99,517.32 L137.87,484.99" id="Shape" stroke="#FFFFFF" stroke-width="3"></path>
                <path d="M114.66,514.84 L165.6,543.95" id="Shape" stroke="#FFFFFF" stroke-width="3" fill="#FFFFFF" fill-rule="nonzero"></path>
                <path d="M380.90625,882 L398.5,836.1875 L405.03125,836.1875 L423.78125,882 L416.875,882 L411.53125,868.125 L392.375,868.125 L387.34375,882 L380.90625,882 Z M394.125,863.1875 L409.65625,863.1875 L404.875,850.5 C403.416659,846.645814 402.333337,843.479179 401.625,841 C401.041664,843.937515 400.218755,846.854152 399.15625,849.75 L394.125,863.1875 Z M447.53125,882 L441.90625,882 L441.90625,846.15625 C440.552077,847.447923 438.776053,848.739577 436.578125,850.03125 C434.380197,851.322923 432.406259,852.291663 430.65625,852.9375 L430.65625,847.5 C433.802099,846.020826 436.552072,844.229177 438.90625,842.125 C441.260428,840.020823 442.927078,837.979177 443.90625,836 L447.53125,836 L447.53125,882 Z M465.09375,882 L465.09375,875.59375 L471.5,875.59375 L471.5,882 L465.09375,882 Z M500.90625,882 L495.28125,882 L495.28125,846.15625 C493.927077,847.447923 492.151053,848.739577 489.953125,850.03125 C487.755197,851.322923 485.781259,852.291663 484.03125,852.9375 L484.03125,847.5 C487.177099,846.020826 489.927072,844.229177 492.28125,842.125 C494.635428,840.020823 496.302078,837.979177 497.28125,836 L500.90625,836 L500.90625,882 Z M515.3125,859.40625 C515.3125,853.989556 515.869786,849.630225 516.984375,846.328125 C518.098964,843.026025 519.755197,840.479176 521.953125,838.6875 C524.151053,836.895824 526.91665,836 530.25,836 C532.708346,836 534.864574,836.494787 536.71875,837.484375 C538.572926,838.473963 540.104161,839.901032 541.3125,841.765625 C542.520839,843.630218 543.468747,845.901028 544.15625,848.578125 C544.843753,851.255222 545.1875,854.864561 545.1875,859.40625 C545.1875,864.781277 544.635422,869.119775 543.53125,872.421875 C542.427078,875.723975 540.776053,878.276033 538.578125,880.078125 C536.380197,881.880217 533.604183,882.78125 530.25,882.78125 C525.833311,882.78125 522.364596,881.197932 519.84375,878.03125 C516.822902,874.218731 515.3125,868.01046 515.3125,859.40625 Z M521.09375,859.40625 C521.09375,866.927121 521.97395,871.932279 523.734375,874.421875 C525.4948,876.911471 527.666654,878.15625 530.25,878.15625 C532.833346,878.15625 535.0052,876.906263 536.765625,874.40625 C538.52605,871.906237 539.40625,866.906287 539.40625,859.40625 C539.40625,851.864546 538.52605,846.854179 536.765625,844.375 C535.0052,841.895821 532.812513,840.65625 530.1875,840.65625 C527.604154,840.65625 525.541674,841.749989 524,843.9375 C522.06249,846.729181 521.09375,851.885379 521.09375,859.40625 Z" id="A1.10" fill="#FFFFFF"></path>
                <path d="M380.90625,1180 L398.5,1134.1875 L405.03125,1134.1875 L423.78125,1180 L416.875,1180 L411.53125,1166.125 L392.375,1166.125 L387.34375,1180 L380.90625,1180 Z M394.125,1161.1875 L409.65625,1161.1875 L404.875,1148.5 C403.416659,1144.64581 402.333337,1141.47918 401.625,1139 C401.041664,1141.93751 400.218755,1144.85415 399.15625,1147.75 L394.125,1161.1875 Z M447.53125,1180 L441.90625,1180 L441.90625,1144.15625 C440.552077,1145.44792 438.776053,1146.73958 436.578125,1148.03125 C434.380197,1149.32292 432.406259,1150.29166 430.65625,1150.9375 L430.65625,1145.5 C433.802099,1144.02083 436.552072,1142.22918 438.90625,1140.125 C441.260428,1138.02082 442.927078,1135.97918 443.90625,1134 L447.53125,1134 L447.53125,1180 Z M465.09375,1180 L465.09375,1173.59375 L471.5,1173.59375 L471.5,1180 L465.09375,1180 Z M479.71875,1157.40625 C479.71875,1151.98956 480.276036,1147.63022 481.390625,1144.32812 C482.505214,1141.02603 484.161447,1138.47918 486.359375,1136.6875 C488.557303,1134.89582 491.3229,1134 494.65625,1134 C497.114596,1134 499.270824,1134.49479 501.125,1135.48438 C502.979176,1136.47396 504.510411,1137.90103 505.71875,1139.76562 C506.927089,1141.63022 507.874997,1143.90103 508.5625,1146.57812 C509.250003,1149.25522 509.59375,1152.86456 509.59375,1157.40625 C509.59375,1162.78128 509.041672,1167.11978 507.9375,1170.42188 C506.833328,1173.72397 505.182303,1176.27603 502.984375,1178.07812 C500.786447,1179.88022 498.010433,1180.78125 494.65625,1180.78125 C490.239561,1180.78125 486.770846,1179.19793 484.25,1176.03125 C481.229152,1172.21873 479.71875,1166.01046 479.71875,1157.40625 Z M485.5,1157.40625 C485.5,1164.92712 486.3802,1169.93228 488.140625,1172.42188 C489.90105,1174.91147 492.072904,1176.15625 494.65625,1176.15625 C497.239596,1176.15625 499.41145,1174.90626 501.171875,1172.40625 C502.9323,1169.90624 503.8125,1164.90629 503.8125,1157.40625 C503.8125,1149.86455 502.9323,1144.85418 501.171875,1142.375 C499.41145,1139.89582 497.218763,1138.65625 494.59375,1138.65625 C492.010404,1138.65625 489.947924,1139.74999 488.40625,1141.9375 C486.46874,1144.72918 485.5,1149.88538 485.5,1157.40625 Z M544.5,1145.40625 L538.90625,1145.84375 C538.406248,1143.63541 537.697921,1142.03126 536.78125,1141.03125 C535.260409,1139.42708 533.385428,1138.625 531.15625,1138.625 C529.364574,1138.625 527.791673,1139.12499 526.4375,1140.125 C524.666658,1141.41667 523.270838,1143.30207 522.25,1145.78125 C521.229162,1148.26043 520.697917,1151.79164 520.65625,1156.375 C522.010423,1154.31249 523.666657,1152.78126 525.625,1151.78125 C527.583343,1150.78124 529.635406,1150.28125 531.78125,1150.28125 C535.531269,1150.28125 538.723945,1151.66144 541.359375,1154.42188 C543.994805,1157.18231 545.3125,1160.74998 545.3125,1165.125 C545.3125,1168.00001 544.692715,1170.67186 543.453125,1173.14062 C542.213535,1175.60939 540.510427,1177.49999 538.34375,1178.8125 C536.177073,1180.12501 533.718764,1180.78125 530.96875,1180.78125 C526.281227,1180.78125 522.458348,1179.05731 519.5,1175.60938 C516.541652,1172.16144 515.0625,1166.47921 515.0625,1158.5625 C515.0625,1149.70829 516.6979,1143.27085 519.96875,1139.25 C522.822931,1135.74998 526.666642,1134 531.5,1134 C535.104185,1134 538.05728,1135.01041 540.359375,1137.03125 C542.66147,1139.05209 544.041664,1141.84373 544.5,1145.40625 Z M521.53125,1165.15625 C521.53125,1167.09376 521.942704,1168.94791 522.765625,1170.71875 C523.588546,1172.48959 524.739576,1173.83854 526.21875,1174.76562 C527.697924,1175.69271 529.249992,1176.15625 530.875,1176.15625 C533.250012,1176.15625 535.291658,1175.19793 537,1173.28125 C538.708342,1171.36457 539.5625,1168.76043 539.5625,1165.46875 C539.5625,1162.30207 538.718758,1159.8073 537.03125,1157.98438 C535.343742,1156.16145 533.218763,1155.25 530.65625,1155.25 C528.114571,1155.25 525.958342,1156.16145 524.1875,1157.98438 C522.416658,1159.8073 521.53125,1162.1979 521.53125,1165.15625 Z" id="A1.06" fill="#FFFFFF"></path>
                <path d="M379.90625,1405 L397.5,1359.1875 L404.03125,1359.1875 L422.78125,1405 L415.875,1405 L410.53125,1391.125 L391.375,1391.125 L386.34375,1405 L379.90625,1405 Z M393.125,1386.1875 L408.65625,1386.1875 L403.875,1373.5 C402.416659,1369.64581 401.333337,1366.47918 400.625,1364 C400.041664,1366.93751 399.218755,1369.85415 398.15625,1372.75 L393.125,1386.1875 Z M446.53125,1405 L440.90625,1405 L440.90625,1369.15625 C439.552077,1370.44792 437.776053,1371.73958 435.578125,1373.03125 C433.380197,1374.32292 431.406259,1375.29166 429.65625,1375.9375 L429.65625,1370.5 C432.802099,1369.02083 435.552072,1367.22918 437.90625,1365.125 C440.260428,1363.02082 441.927078,1360.97918 442.90625,1359 L446.53125,1359 L446.53125,1405 Z M464.09375,1405 L464.09375,1398.59375 L470.5,1398.59375 L470.5,1405 L464.09375,1405 Z M478.71875,1382.40625 C478.71875,1376.98956 479.276036,1372.63022 480.390625,1369.32812 C481.505214,1366.02603 483.161447,1363.47918 485.359375,1361.6875 C487.557303,1359.89582 490.3229,1359 493.65625,1359 C496.114596,1359 498.270824,1359.49479 500.125,1360.48438 C501.979176,1361.47396 503.510411,1362.90103 504.71875,1364.76562 C505.927089,1366.63022 506.874997,1368.90103 507.5625,1371.57812 C508.250003,1374.25522 508.59375,1377.86456 508.59375,1382.40625 C508.59375,1387.78128 508.041672,1392.11978 506.9375,1395.42188 C505.833328,1398.72397 504.182303,1401.27603 501.984375,1403.07812 C499.786447,1404.88022 497.010433,1405.78125 493.65625,1405.78125 C489.239561,1405.78125 485.770846,1404.19793 483.25,1401.03125 C480.229152,1397.21873 478.71875,1391.01046 478.71875,1382.40625 Z M484.5,1382.40625 C484.5,1389.92712 485.3802,1394.93228 487.140625,1397.42188 C488.90105,1399.91147 491.072904,1401.15625 493.65625,1401.15625 C496.239596,1401.15625 498.41145,1399.90626 500.171875,1397.40625 C501.9323,1394.90624 502.8125,1389.90629 502.8125,1382.40625 C502.8125,1374.86455 501.9323,1369.85418 500.171875,1367.375 C498.41145,1364.89582 496.218763,1363.65625 493.59375,1363.65625 C491.010404,1363.65625 488.947924,1364.74999 487.40625,1366.9375 C485.46874,1369.72918 484.5,1374.88538 484.5,1382.40625 Z M543.875,1399.59375 L543.875,1405 L513.59375,1405 C513.552083,1403.64583 513.770831,1402.34376 514.25,1401.09375 C515.020837,1399.03124 516.2552,1397.00001 517.953125,1395 C519.65105,1392.99999 522.104151,1390.68751 525.3125,1388.0625 C530.291692,1383.97915 533.656241,1380.7448 535.40625,1378.35938 C537.156259,1375.97395 538.03125,1373.71876 538.03125,1371.59375 C538.03125,1369.36457 537.234383,1367.48438 535.640625,1365.95312 C534.046867,1364.42187 531.968763,1363.65625 529.40625,1363.65625 C526.697903,1363.65625 524.531258,1364.46874 522.90625,1366.09375 C521.281242,1367.71876 520.458333,1369.96874 520.4375,1372.84375 L514.65625,1372.25 C515.052085,1367.93748 516.541654,1364.65105 519.125,1362.39062 C521.708346,1360.1302 525.177062,1359 529.53125,1359 C533.927105,1359 537.406237,1360.21874 539.96875,1362.65625 C542.531263,1365.09376 543.8125,1368.11457 543.8125,1371.71875 C543.8125,1373.55209 543.437504,1375.35416 542.6875,1377.125 C541.937496,1378.89584 540.692717,1380.76041 538.953125,1382.71875 C537.213533,1384.67709 534.322937,1387.36457 530.28125,1390.78125 C526.906233,1393.6146 524.739588,1395.53645 523.78125,1396.54688 C522.822912,1397.5573 522.031253,1398.57291 521.40625,1399.59375 L543.875,1399.59375 Z" id="A1.02" fill="#FFFFFF"></path>
            </g>
        </g>
    </g>
</svg>