<?xml version="1.0" encoding="UTF-8"?>
<svg width="1014px" height="1507px" viewBox="0 0 1014 1507" version="1.1" xmlns="http://www.w3.org/2000/svg" xmlns:xlink="http://www.w3.org/1999/xlink">
    <!-- Generator: Sketch 43.2 (39069) - http://www.bohemiancoding.com/sketch -->
    <title>groundfloor</title>
    <desc>Created with Sketch.</desc>
    <defs></defs>
    <g id="Page-1" stroke="none" stroke-width="1" fill="none" fill-rule="evenodd">
        <g id="Artboard" transform="translate(-234.000000, -215.000000)">
            <g id="groundfloor" transform="translate(238.000000, 220.000000)">
                <polyline id="Shape" stroke="#FFFFFF" stroke-width="7" points="179.59 1017.68 8.16 918.51 87.5 781.94"></polyline>
                <polyline id="Shape" stroke="#FFFFFF" stroke-width="7" points="322.55 1244.29 452.4 1318.49 350.41 1496.97 128.31 1368.89 230.65 1191.52 302.88 1233.05 256.36 1206.3"></polyline>
                <path d="M526.05,1390.62 L439.77,1340.6" id="Shape" stroke="#FFFFFF" stroke-width="7"></path>
                <polyline id="Shape" stroke="#FFFFFF" stroke-width="7" points="307.29 1120.76 192.39 1054.85 209.58 1023.89"></polyline>
                <polyline id="Shape" stroke="#FFFFFF" stroke-width="7" points="439.66 720.25 489.39 805.88 289.98 1150.69"></polyline>
                <polyline id="Shape" stroke="#FFFFFF" stroke-width="7" points="515.2 568.35 480.76 628.64 561.96 675.76"></polyline>
                <path d="M755.57,977.45 L769.91,977.45" id="Shape" stroke="#FFFFFF" stroke-width="7"></path>
                <path d="M755.57,1006.48 L769.91,1006.48" id="Shape" stroke="#FFFFFF" stroke-width="7"></path>
                <path d="M519.63,1403.28 L533.46,1378.83" id="Shape" stroke="#FFFFFF" stroke-width="7"></path>
                <path d="M606.77,1453.99 L620.61,1429.53" id="Shape" stroke="#FFFFFF" stroke-width="7"></path>
                <polyline id="Shape" stroke="#FFFFFF" stroke-width="7" points="495.63 1217.38 416.31 1171.58 454.33 1105.73 533.65 1151.53"></polyline>
                <path d="M536.9,621.02 L518.96,650.81" id="Shape" stroke="#FFFFFF" stroke-width="3"></path>
                <path d="M566.85,638.41 L548.91,668.2" id="Shape" stroke="#FFFFFF" stroke-width="3"></path>
                <path d="M559.46,634.12 L541.53,663.91" id="Shape" stroke="#FFFFFF" stroke-width="3"></path>
                <path d="M551.96,629.77 L534.02,659.56" id="Shape" stroke="#FFFFFF" stroke-width="3"></path>
                <path d="M544.63,625.51 L526.69,655.31" id="Shape" stroke="#FFFFFF" stroke-width="3"></path>
                <path d="M574.54,642.88 L556.61,672.66" id="Shape" stroke="#FFFFFF" stroke-width="3"></path>
                <path d="M571.35,641.03 L589.21,610.46" id="Shape" stroke="#FFFFFF" stroke-width="3"></path>
                <path d="M541.41,623.63 L559.18,593.2" id="Shape" stroke="#FFFFFF" stroke-width="3"></path>
                <path d="M548.79,627.92 L566.58,597.46" id="Shape" stroke="#FFFFFF" stroke-width="3"></path>
                <path d="M556.29,632.28 L574.1,601.78" id="Shape" stroke="#FFFFFF" stroke-width="3"></path>
                <path d="M563.62,636.54 L581.46,606" id="Shape" stroke="#FFFFFF" stroke-width="3"></path>
                <path d="M533.71,619.17 L551.47,588.77" id="Shape" stroke="#FFFFFF" stroke-width="3"></path>
                <path d="M469.73,1161.68 L451.49,1191.89" id="Shape" stroke="#FFFFFF" stroke-width="3"></path>
                <path d="M499.77,1178.85 L481.49,1209.21" id="Shape" stroke="#FFFFFF" stroke-width="3"></path>
                <path d="M474.09,1204.94 L492.36,1174.61" id="Shape" stroke="#FFFFFF" stroke-width="3"></path>
                <path d="M484.82,1170.3 L466.45,1200.53" id="Shape" stroke="#FFFFFF" stroke-width="3"></path>
                <path d="M477.46,1166.1 L459.23,1196.36" id="Shape" stroke="#FFFFFF" stroke-width="3"></path>
                <path d="M507.56,1183.29 L489.04,1213.57" id="Shape" stroke="#FFFFFF" stroke-width="3"></path>
                <path d="M504.29,1181.43 L524.24,1147.27" id="Shape" stroke="#FFFFFF" stroke-width="3"></path>
                <path d="M474.22,1164.25 L494.25,1129.95" id="Shape" stroke="#FFFFFF" stroke-width="3"></path>
                <path d="M481.63,1168.48 L501.64,1134.22" id="Shape" stroke="#FFFFFF" stroke-width="3"></path>
                <path d="M489.16,1172.79 L509.16,1138.56" id="Shape" stroke="#FFFFFF" stroke-width="3"></path>
                <path d="M496.53,1176.99 L516.5,1142.8" id="Shape" stroke="#FFFFFF" stroke-width="3"></path>
                <path d="M466.5,1159.83 L486.55,1125.5" id="Shape" stroke="#FFFFFF" stroke-width="3"></path>
                <polyline id="Shape" stroke="#FFFFFF" stroke-width="3" points="443.82 1187.46 462.15 1157.35 511.83 1185.73 533.05 1149.59"></polyline>
                <polyline id="Shape" stroke="#FFFFFF" stroke-width="3" points="593.71 620.65 596.73 615.47 579.18 645.58 529.4 616.66 511.29 646.38"></polyline>
                <polyline id="Shape" stroke="#FFFFFF" stroke-width="7" points="604.93 601.64 596.73 615.47 485.49 551.2 561.69 419.22 673.01 483.49 619.39 576.43"></polyline>
                <polyline id="Shape" stroke="#FFFFFF" stroke-width="7" points="762.74 400.95 720.36 400.95 673.01 483.49"></polyline>
                <path d="M521.36,698.68 L541.98,663.02" id="Shape" stroke="#FFFFFF" stroke-width="7"></path>
                <path d="M474.35,779.97 L490.67,751.75" id="Shape" stroke="#FFFFFF" stroke-width="7"></path>
                <path d="M527.43,702.49 L515.29,694.86" id="Shape" stroke="#FFFFFF" stroke-width="7"></path>
                <path d="M496.83,755.4 L484.69,747.78" id="Shape" stroke="#FFFFFF" stroke-width="7"></path>
                <path d="M307.29,1120.76 L290.36,1150.04" id="Shape" stroke="#FFFFFF" stroke-width="7"></path>
                <path d="M257.45,1206.93 L275.82,1175.17" id="Shape" stroke="#FFFFFF" stroke-width="7"></path>
                <polyline id="Shape" stroke="#FFFFFF" stroke-width="7" points="93.04 559.4 0.83 505.99 292.81 0.18 762.74 275.65 762.74 977.45 762.74 784.96 1006.1 784.96 1006.1 1088.76 762.74 1088.76 762.74 1006.48 762.74 1477.87 676.84 1477.87 613.6 1441.71"></polyline>
                <polyline id="Shape" stroke="#FFFFFF" stroke-width="7" points="118.16 573.95 185.21 612.8 100.04 761.6"></polyline>
                <path d="M296.75,1237.46 L304.01,1225.1" id="Shape" stroke="#FFFFFF" stroke-width="7"></path>
                <path d="M321.79,1252.15 L329.04,1239.79" id="Shape" stroke="#FFFFFF" stroke-width="7"></path>
                <path d="M284.01,1146.45 L296.49,1153.5" id="Shape" stroke="#FFFFFF" stroke-width="7"></path>
                <path d="M269.74,1171.74 L282.23,1178.78" id="Shape" stroke="#FFFFFF" stroke-width="7"></path>
                <path d="M176.01,1023.89 L183.17,1011.48" id="Shape" stroke="#FFFFFF" stroke-width="7"></path>
                <path d="M94.43,756.23 L106.85,763.37" id="Shape" stroke="#FFFFFF" stroke-width="7"></path>
                <path d="M79.96,781.4 L92.39,788.54" id="Shape" stroke="#FFFFFF" stroke-width="7"></path>
                <path d="M89.44,565.66 L96.58,553.23" id="Shape" stroke="#FFFFFF" stroke-width="7"></path>
                <path d="M114.62,580.12 L121.76,567.69" id="Shape" stroke="#FFFFFF" stroke-width="7"></path>
                <path d="M613.46,572.95 L625.82,580.21" id="Shape" stroke="#FFFFFF" stroke-width="7"></path>
                <path d="M598.75,597.98 L611.11,605.24" id="Shape" stroke="#FFFFFF" stroke-width="7"></path>
                <path d="M796.90625,954 L814.5,908.1875 L821.03125,908.1875 L839.78125,954 L832.875,954 L827.53125,940.125 L808.375,940.125 L803.34375,954 L796.90625,954 Z M810.125,935.1875 L825.65625,935.1875 L820.875,922.5 C819.416659,918.645814 818.333337,915.479179 817.625,913 C817.041664,915.937515 816.218755,918.854152 815.15625,921.75 L810.125,935.1875 Z M844.75,954 L844.75,908.1875 L877.875,908.1875 L877.875,913.59375 L850.8125,913.59375 L850.8125,927.625 L876.15625,927.625 L876.15625,933 L850.8125,933 L850.8125,948.59375 L878.9375,948.59375 L878.9375,954 L844.75,954 Z M888.1875,954 L888.1875,947.59375 L894.59375,947.59375 L894.59375,954 L888.1875,954 Z M932.375,948.59375 L932.375,954 L902.09375,954 C902.052083,952.645827 902.270831,951.343756 902.75,950.09375 C903.520837,948.03124 904.7552,946.00001 906.453125,944 C908.15105,941.99999 910.604151,939.687513 913.8125,937.0625 C918.791692,932.979146 922.156241,929.744804 923.90625,927.359375 C925.656259,924.973946 926.53125,922.718761 926.53125,920.59375 C926.53125,918.364572 925.734383,916.484383 924.140625,914.953125 C922.546867,913.421867 920.468763,912.65625 917.90625,912.65625 C915.197903,912.65625 913.031258,913.468742 911.40625,915.09375 C909.781242,916.718758 908.958333,918.968736 908.9375,921.84375 L903.15625,921.25 C903.552085,916.937478 905.041654,913.651053 907.625,911.390625 C910.208346,909.130197 913.677062,908 918.03125,908 C922.427105,908 925.906237,909.218738 928.46875,911.65625 C931.031263,914.093762 932.3125,917.114565 932.3125,920.71875 C932.3125,922.552092 931.937504,924.354158 931.1875,926.125 C930.437496,927.895842 929.192717,929.760407 927.453125,931.71875 C925.713533,933.677093 922.822937,936.364566 918.78125,939.78125 C915.406233,942.614597 913.239588,944.536453 912.28125,945.546875 C911.322912,946.557297 910.531253,947.572912 909.90625,948.59375 L932.375,948.59375 Z M967.59375,919.40625 L962,919.84375 C961.499998,917.635406 960.791671,916.031255 959.875,915.03125 C958.354159,913.427075 956.479178,912.625 954.25,912.625 C952.458324,912.625 950.885423,913.124995 949.53125,914.125 C947.760408,915.416673 946.364588,917.302071 945.34375,919.78125 C944.322912,922.260429 943.791667,925.791644 943.75,930.375 C945.104173,928.31249 946.760407,926.781255 948.71875,925.78125 C950.677093,924.781245 952.729156,924.28125 954.875,924.28125 C958.625019,924.28125 961.817695,925.661445 964.453125,928.421875 C967.088555,931.182305 968.40625,934.749978 968.40625,939.125 C968.40625,942.000014 967.786465,944.671863 966.546875,947.140625 C965.307285,949.609387 963.604177,951.499993 961.4375,952.8125 C959.270823,954.125007 956.812514,954.78125 954.0625,954.78125 C949.374977,954.78125 945.552098,953.057309 942.59375,949.609375 C939.635402,946.161441 938.15625,940.479206 938.15625,932.5625 C938.15625,923.708289 939.79165,917.270853 943.0625,913.25 C945.916681,909.749982 949.760392,908 954.59375,908 C958.197935,908 961.15103,909.010407 963.453125,911.03125 C965.75522,913.052093 967.135414,915.843732 967.59375,919.40625 Z M944.625,939.15625 C944.625,941.09376 945.036454,942.947908 945.859375,944.71875 C946.682296,946.489592 947.833326,947.838537 949.3125,948.765625 C950.791674,949.692713 952.343742,950.15625 953.96875,950.15625 C956.343762,950.15625 958.385408,949.197926 960.09375,947.28125 C961.802092,945.364574 962.65625,942.760433 962.65625,939.46875 C962.65625,936.302068 961.812508,933.807301 960.125,931.984375 C958.437492,930.161449 956.312513,929.25 953.75,929.25 C951.208321,929.25 949.052092,930.161449 947.28125,931.984375 C945.510408,933.807301 944.625,936.197902 944.625,939.15625 Z" id="AE.26" fill="#FFFFFF"></path>
            </g>
        </g>
    </g>
</svg>